<svg xmlns="http://www.w3.org/2000/svg" style="display:none">
  <symbol id="bible" viewBox="0 0 48 48">
    <rect x="8" y="8" width="32" height="32" rx="6" fill="none" stroke="currentColor" stroke-width="2"/>
    <path d="M24 12v24M18 20h12" stroke="currentColor" stroke-width="3" stroke-linecap="round"/>
  </symbol>
  <symbol id="heart" viewBox="0 0 48 48">
    <path d="M24 40s-14-8.5-14-18a8 8 0 0 1 14-5 8 8 0 0 1 14 5c0 9.5-14 18-14 18z" fill="none" stroke="currentColor" stroke-width="2" stroke-linejoin="round"/>
  </symbol>
  <symbol id="youth" viewBox="0 0 48 48">
    <circle cx="16" cy="18" r="4" fill="none" stroke="currentColor" stroke-width="2"/>
    <circle cx="32" cy="18" r="4" fill="none" stroke="currentColor" stroke-width="2"/>
    <path d="M8 34c2-6 8-8 16-8s14 2 16 8" fill="none" stroke="currentColor" stroke-width="2"/>
  </symbol>
  <symbol id="globe" viewBox="0 0 48 48">
    <circle cx="24" cy="24" r="16" fill="none" stroke="currentColor" stroke-width="2"/>
    <path d="M8 24h32M24 8c6 6 6 26 0 32M24 8c-6 6-6 26 0 32" fill="none" stroke="currentColor" stroke-width="2"/>
  </symbol>
  <symbol id="hands" viewBox="0 0 48 48">
    <path d="M10 28l8 8m20-8l-8 8M10 20l10 6m18-6l-10 6" fill="none" stroke="currentColor" stroke-width="2" stroke-linecap="round"/>
  </symbol>
  <symbol id="prayer" viewBox="0 0 48 48">
    <path d="M18 14l4 8-8 8m16-16l-4 8 8 8" fill="none" stroke="currentColor" stroke-width="2" stroke-linecap="round"/>
  </symbol>
  <symbol id="facebook" viewBox="0 0 24 24">
    <path d="M13 20v-7h2.3l.4-3H13V8.3c0-.9.3-1.5 1.6-1.5H16V4.1C15.7 4 14.9 4 14 4c-2.4 0-4 1.3-4 3.8V10H8v3h2v7h3z" fill="currentColor"/>
  </symbol>
  <symbol id="instagram" viewBox="0 0 24 24">
    <rect x="3" y="3" width="18" height="18" rx="5" ry="5" fill="none" stroke="currentColor" stroke-width="2"/>
    <circle cx="12" cy="12" r="4" fill="none" stroke="currentColor" stroke-width="2"/>
    <circle cx="17.5" cy="6.5" r="1.2" fill="currentColor"/>
  </symbol>
  <symbol id="whatsapp" viewBox="0 0 24 24">
    <path d="M17.472 14.382c-.297-.149-1.758-.867-2.03-.967-.273-.099-.471-.148-.67.15-.197.297-.767.966-.94 1.164-.173.199-.347.223-.644.075-.297-.15-1.255-.463-2.39-1.475-.883-.788-1.48-1.761-1.653-2.059-.173-.297-.018-.458.13-.606.134-.133.298-.347.446-.52.149-.174.198-.298.298-.497.099-.198.05-.371-.025-.52-.075-.149-.669-1.612-.916-2.207-.242-.579-.487-.5-.669-.51-.173-.008-.371-.01-.57-.01-.198 0-.52.074-.792.372-.272.297-1.04 1.016-1.04 2.479 0 1.462 1.065 2.875 1.213 3.074.149.198 2.096 3.2 5.077 4.487.709.306 1.262.489 1.694.625.712.227 1.36.195 1.871.118.571-.085 1.758-.719 2.006-1.413.248-.694.248-1.289.173-1.413-.074-.124-.272-.198-.57-.347m-5.421 7.403h-.004a9.87 9.87 0 01-5.031-1.378l-.361-.214-3.741.982.998-3.648-.235-.374a9.86 9.86 0 01-1.51-5.26c.001-5.45 4.436-9.884 9.888-9.884 2.64 0 5.122 1.03 6.988 2.898a9.825 9.825 0 012.893 6.994c-.003 5.45-4.437 9.884-9.885 9.884m8.413-18.297A11.815 11.815 0 0012.05 0C5.495 0 .16 5.335.157 11.892c0 2.096.547 4.142 1.588 5.945L.057 24l6.305-1.654a11.882 11.882 0 005.683 1.448h.005c6.554 0 11.89-5.335 11.893-11.893A11.821 11.821 0 0020.885 3.488" fill="currentColor"/>
  </symbol>
  <symbol id="theme" viewBox="0 0 24 24">
    <path d="M12 3c-4.97 0-9 4.03-9 9s4.03 9 9 9 9-4.03 9-9c0-.46-.04-.92-.1-1.36-.98 1.37-2.58 2.26-4.4 2.26-2.98 0-5.4-2.42-5.4-5.4 0-1.81.89-3.42 2.26-4.4-.44-.06-.9-.1-1.36-.1z" fill="currentColor"/>
  </symbol>
  <symbol id="play" viewBox="0 0 24 24">
    <path d="M8 5v14l11-7z" fill="currentColor"/>
  </symbol>
  <symbol id="voice" viewBox="0 0 24 24">
    <path d="M12 14c1.66 0 2.99-1.34 2.99-3L15 5c0-1.66-1.34-3-3-3S9 3.34 9 5v6c0 1.66 1.34 3 3 3zm5.3-3c0 3-2.54 5.1-5.3 5.1S6.7 14 6.7 11H5c0 3.41 2.72 6.23 6 6.72V21h2v-3.28c3.28-.48 6-3.3 6-6.72h-1.7z" fill="currentColor"/>
  </symbol>
  <symbol id="target" viewBox="0 0 48 48">
    <circle cx="24" cy="24" r="20" fill="none" stroke="currentColor" stroke-width="2"/>
    <circle cx="24" cy="24" r="12" fill="none" stroke="currentColor" stroke-width="2"/>
    <circle cx="24" cy="24" r="4" fill="currentColor"/>
  </symbol>
  <symbol id="eye" viewBox="0 0 48 48">
    <path d="M24 9C14 9 5.46 15.22 2 24c3.46 8.78 12 15 22 15s18.54-6.22 22-15c-3.46-8.78-12-15-22-15zm0 25c-5.52 0-10-4.48-10-10s4.48-10 10-10 10 4.48 10 10-4.48 10-10 10zm0-16c-3.31 0-6 2.69-6 6s2.69 6 6 6 6-2.69 6-6-2.69-6-6-6z" fill="currentColor"/>
  </symbol>
  <symbol id="youtube" viewBox="0 0 24 24">
    <path d="M23.498 6.186a3.016 3.016 0 0 0-2.122-2.136C19.505 3.545 12 3.545 12 3.545s-7.505 0-9.377.505A3.017 3.017 0 0 0 .502 6.186C0 8.07 0 12 0 12s0 3.93.502 5.814a3.016 3.016 0 0 0 2.122 2.136c1.871.505 9.376.505 9.376.505s7.505 0 9.377-.505a3.015 3.015 0 0 0 2.122-2.136C24 15.93 24 12 24 12s0-3.93-.502-5.814zM9.545 15.568V8.432L15.818 12l-6.273 3.568z" fill="currentColor"/>
  </symbol>
  <symbol id="tiktok" viewBox="0 0 24 24">
    <path d="M12.525.02c1.31-.02 2.61-.01 3.91-.02.08 1.53.63 3.09 1.75 4.17 1.12 1.11 2.7 1.62 4.24 1.79v4.03c-1.44-.05-2.89-.35-4.2-.97-.57-.26-1.1-.59-1.62-.93-.01 2.92.01 5.84-.02 8.75-.08 1.4-.54 2.79-1.35 3.94-1.31 1.92-3.58 3.17-5.91 3.21-1.43.08-2.86-.31-4.08-1.03-2.02-1.19-3.44-3.37-3.65-5.71-.02-.5-.03-1-.01-1.49.18-1.9 1.12-3.72 2.58-4.96 1.66-1.44 3.98-2.13 6.15-1.72.02 1.48-.04 2.96-.04 4.44-.99-.32-2.15-.23-3.02.37-.63.41-1.11 1.04-1.36 1.75-.21.51-.15 1.07-.14 1.61.24 1.64 1.82 3.02 3.5 2.87 1.12-.01 2.19-.66 2.77-1.61.19-.33.4-.67.41-1.06.1-1.79.06-3.57.07-5.36.01-4.03-.01-8.05.02-12.07z" fill="currentColor"/>
  </symbol>
</svg>
